<?xml version="1.0" standalone="no"?>
<!DOCTYPE svg PUBLIC "-//W3C//DTD SVG 20010904//EN"
 "http://www.w3.org/TR/2001/REC-SVG-20010904/DTD/svg10.dtd">
<svg version="1.0" xmlns="http://www.w3.org/2000/svg"
 width="512.000000pt" height="512.000000pt" viewBox="0 0 512.000000 512.000000"
 preserveAspectRatio="xMidYMid meet">
<metadata>
Created by potrace 1.14, written by Peter Selinger 2001-2017
</metadata>
<g transform="translate(0.000000,512.000000) scale(0.100000,-0.100000)"
fill="#000000" stroke="none">
<path d="M213 5101 c-63 -21 -115 -60 -154 -114 -63 -87 -59 83 -58 -2436 0
-2277 0 -2296 20 -2349 25 -65 101 -145 166 -175 l48 -22 2315 -2 c2285 -2
2316 -2 2366 18 71 27 137 88 171 157 l28 57 2 2315 2 2315 -21 54 c-25 66
-99 143 -166 174 l-47 22 -2310 2 c-2195 2 -2313 1 -2362 -16z m1443 -884 l0
-753 -753 0 -753 0 0 683 c0 600 2 687 16 722 16 40 63 84 99 94 11 2 329 5
706 6 l686 1 -1 -753z m1655 746 c0 -5 1 -70 2 -146 2 -133 3 -140 26 -158 45
-36 105 -18 119 37 4 16 7 84 6 152 l-1 122 687 0 687 0 44 -23 c28 -15 52
-38 66 -63 l22 -39 1 -691 0 -690 -753 0 -754 0 1 465 c1 300 -3 472 -9 485
-6 12 -23 27 -38 34 -23 11 -32 11 -62 -4 -19 -9 -36 -21 -37 -28 -1 -6 -2
-218 -4 -471 -1 -253 -3 -465 -3 -471 -1 -15 -1501 -15 -1502 0 -1 14 -1 1445
0 1474 l1 22 750 0 c413 0 750 -3 751 -7z m-1671 -1652 c14 -1 16 -81 16 -751
0 -520 -3 -750 -10 -751 -14 -1 -1467 -1 -1483 0 -17 1 -19 1497 -3 1503 8 2
1430 2 1480 -1z m1671 -11 c5 -85 2 -1478 -3 -1485 -7 -11 -1477 -13 -1494 -3
-13 9 -10 1488 3 1496 6 4 345 7 752 7 652 0 741 -2 742 -15z m1647 11 c9 -1
12 -158 12 -751 0 -707 -1 -750 -17 -751 -23 -1 -1419 -1 -1459 0 l-30 1 0
748 c0 723 0 747 18 752 15 4 1419 5 1476 1z m-3302 -2128 c1 -498 0 -489 46
-514 24 -13 83 5 94 29 4 9 9 226 10 482 1 256 3 468 3 471 1 7 1501 7 1502 0
1 -8 1 -1461 0 -1484 -1 -16 -42 -17 -753 -15 l-751 3 0 138 c0 130 -2 139
-23 162 -30 33 -73 33 -104 0 -22 -23 -23 -32 -23 -165 l-1 -140 -688 0 c-669
0 -690 1 -728 20 -24 12 -49 37 -65 63 l-25 44 0 690 0 689 753 0 752 -1 1
-472z m3314 -213 l0 -687 -23 -44 c-15 -27 -38 -52 -63 -66 l-39 -23 -691 0
-690 0 1 748 c1 411 3 750 3 753 1 3 340 5 752 5 l750 0 0 -686z"/>
<path d="M2306 4673 c-57 -30 -47 -114 17 -131 17 -4 98 -8 180 -7 81 0 147
-3 147 -8 0 -9 -63 -154 -216 -499 -50 -115 -81 -197 -79 -210 7 -36 53 -71
84 -63 37 9 56 31 85 103 15 34 40 92 56 127 16 35 41 93 56 127 14 35 35 81
45 103 10 22 52 118 94 213 79 182 83 203 43 239 -18 16 -42 18 -254 18 -170
1 -240 -3 -258 -12z"/>
<path d="M2500 3043 c-156 -56 -224 -203 -155 -339 l25 -49 -29 -30 c-112
-116 -110 -301 4 -418 144 -148 390 -106 482 81 23 47 28 69 27 132 0 85 -22
141 -77 200 l-32 35 23 42 c66 120 6 285 -121 331 -52 19 -118 26 -147 15z
m99 -157 c91 -47 36 -187 -64 -162 -67 17 -87 96 -36 147 33 32 58 36 100 15z
m38 -342 c82 -62 93 -163 24 -234 -27 -29 -57 -40 -107 -40 -108 0 -180 121
-130 219 37 70 152 100 213 55z"/>
<path d="M3854 2958 c-29 -14 -48 -51 -40 -81 3 -13 71 -90 151 -171 l146
-147 -140 -139 c-77 -77 -145 -149 -151 -160 -27 -51 28 -121 83 -104 12 3 88
72 169 152 l147 145 128 -129 c162 -163 178 -176 212 -168 41 10 61 33 61 72
0 32 -14 49 -142 179 -79 79 -145 146 -147 149 -3 2 61 71 142 152 133 135
147 152 147 184 0 44 -28 71 -73 71 -29 0 -50 -17 -180 -148 -81 -81 -150
-146 -152 -144 -2 2 -68 67 -147 145 -143 142 -173 161 -214 142z"/>
<path d="M820 1381 c-102 -31 -177 -113 -195 -213 -6 -31 -3 -41 19 -62 46
-47 113 -24 129 44 4 14 20 38 36 54 65 62 171 36 199 -49 23 -69 -13 -135
-235 -434 -128 -172 -140 -200 -100 -246 l25 -29 213 -1 c118 -1 226 3 242 8
49 16 63 76 26 118 -19 23 -25 23 -165 23 -79 0 -144 1 -144 3 0 1 47 66 105
145 57 79 123 180 147 226 37 73 42 91 42 150 0 84 -28 146 -90 201 -70 61
-173 86 -254 62z"/>
</g>
</svg>
